<svg xmlns="http://www.w3.org/2000/svg" xmlns:xlink="http://www.w3.org/1999/xlink" overflow="visible" viewBox="0 0 190.5 187.1">
  <style>
  </style>
  <path d="M75 104.2v15.9c0 8.8-7.2 15.9-15.9 15.9s-15.9-7.2-15.9-15.9 7.2-15.9 15.9-15.9H75M109.1 70H59C31.3 70 8.9 92.5 8.9 120.2s22.4 50.1 50.1 50.1 50.1-22.4 50.1-50.1V70z" fill="#444"/>
  <path d="M109.1 86V70c0-8.8 7.2-15.9 15.9-15.9s16 7.1 16 15.9-7.1 16-15.9 16h-16M75 120.2h50.1c27.7 0 50.1-22.4 50.1-50.1S152.8 20 125.1 20 75 42.4 75 70v50.2z" fill="#222"/>
  <g opacity=".6">
    <defs>
      <path id="SVGID_1_" d="M75 104.2v15.9c0 8.8-7.2 15.9-15.9 15.9s-15.9-7.2-15.9-15.9 7.2-15.9 15.9-15.9H75m34.1-34.1H59c-27.7 0-50.1 22.4-50.1 50.1s22.4 50.1 50.1 50.1 50.1-22.4 50.1-50.1V70.1z"/>
    </defs>
    <clipPath id="SVGID_2_">
      <use xlink:href="#SVGID_1_" overflow="visible"/>
    </clipPath>
    <linearGradient id="SVGID_3_" gradientUnits="userSpaceOnUse" x1="-1624.244" y1="-285.999" x2="-1504.354" y2="-285.999" gradientTransform="rotate(180 -752.177 -65.575)">
      <stop offset="0" stop-color="#fff"/>
      <stop offset="1" stop-color="#fff" stop-opacity="0"/>
    </linearGradient>
    <path d="M118.7 122.6s-29.1 53.3-105.4 26.9c-52.7-18.3 68.1 37.6 68.1 37.6l38.5-6.8-1.2-57.7z" opacity=".15" clip-path="url(#SVGID_2_)" fill="url(#SVGID_3_)"/>
    <g>
      <defs>
        <path id="SVGID_4_" d="M109.1 86V70.1c0-8.8 7.2-15.9 15.9-15.9s16 7.1 16 15.9S133.9 86 125.1 86h-16M75 120.2h50.1c27.7 0 50.1-22.4 50.1-50.1S152.8 20 125.1 20 75 42.4 75 70.1v50.1z"/>
      </defs>
      <clipPath id="SVGID_5_">
        <use xlink:href="#SVGID_4_" overflow="visible"/>
      </clipPath>
      <linearGradient id="SVGID_6_" gradientUnits="userSpaceOnUse" x1="70.571" y1="32.266" x2="190.461" y2="32.266">
        <stop offset="0" stop-color="#fff"/>
        <stop offset="1" stop-color="#fff" stop-opacity="0"/>
      </linearGradient>
      <path d="M71.8 64.5s29.1-53.3 105.4-26.9C229.8 55.9 109.1 0 109.1 0L70.6 6.8l1.2 57.7z" opacity=".15" clip-path="url(#SVGID_5_)" fill="url(#SVGID_6_)"/>
    </g>
  </g>
  <path d="M125.1 136.1c-8.8 0-15.9-7.2-15.9-15.9V70c0-27.7-22.4-50.1-50.1-50.1h-32v34.2H59c8.8 0 16 7.1 16 15.9v50.2c0 27.7 22.4 50.1 50.1 50.1H157v-34.2h-31.9z"/>
</svg>
