<!-- Generator: Adobe Illustrator 24.3.0, SVG Export Plug-In  -->
<svg version="1.1" xmlns="http://www.w3.org/2000/svg" xmlns:xlink="http://www.w3.org/1999/xlink" x="0px" y="0px" width="166.3px"
	 height="150.4px" viewBox="0 0 166.3 150.4" style="overflow:visible;enable-background:new 0 0 166.3 150.4;"
	 xml:space="preserve">
<style type="text/css">
	.st0{fill:#666666;enable-background:new    ;}
	.st1{fill:#444444;enable-background:new    ;}
	.st2{fill:#333333;}
</style>
<defs>
</defs>
<g>
	<path class="st0" d="M66.1,84.3v15.9c0,8.8-7.2,15.9-15.9,15.9s-15.9-7.2-15.9-15.9s7.2-15.9,15.9-15.9H66.1 M100.3,50.1H50.1
		C22.4,50.1,0,72.6,0,100.3s22.4,50.1,50.1,50.1s50.1-22.4,50.1-50.1V50.1L100.3,50.1z"/>
	<path class="st1" d="M100.3,66.1V50.1c0-8.8,7.2-15.9,15.9-15.9s15.9,7.2,15.9,15.9s-7.2,15.9-15.9,15.9H100.3 M66.1,100.3h50.1
		c27.7,0,50.1-22.4,50.1-50.1S143.9,0,116.2,0S66.1,22.4,66.1,50.1V100.3L66.1,100.3z"/>
	<path class="st2" d="M116.2,116.2c-8.8,0-15.9-7.2-15.9-15.9V84.3V50.1C100.3,22.4,77.8,0,50.1,0H18.2v34.2h31.9
		c8.8,0,15.9,7.2,15.9,15.9v15.9v34.2c0,27.7,22.4,50.1,50.1,50.1h31.9v-34.2H116.2z"/>
</g>
</svg>
