<svg xmlns="http://www.w3.org/2000/svg" xmlns:xlink="http://www.w3.org/1999/xlink" overflow="visible" viewBox="0 0 462 105.7">
  <style>
    .st0{fill:#00f}
  </style>
  <path class="st0" d="M172.6 98c-5.1 0-9.6-.9-13.5-2.7-4-1.8-7.1-4.4-9.4-7.9-2.3-3.5-3.4-7.9-3.4-13.1 0-4.4.8-8.1 2.4-11.1 1.6-3 3.8-5.4 6.6-7.2 2.8-1.8 6-3.2 9.5-4.1 3.6-.9 7.3-1.6 11.2-2 4.6-.5 8.3-.9 11.2-1.4 2.8-.4 4.9-1.1 6.2-1.9 1.3-.9 1.9-2.1 1.9-3.8v-.3c0-3.3-1-5.8-3.1-7.6-2.1-1.8-5-2.7-8.7-2.7-4 0-7.1.9-9.5 2.6-2.3 1.7-3.9 3.9-4.7 6.5L149 39.6c1-4.8 3.1-9 6.1-12.5 3-3.5 7-6.3 11.8-8.2 4.8-1.9 10.4-2.9 16.7-2.9 4.4 0 8.6.5 12.7 1.6 4 1 7.6 2.6 10.8 4.8 3.2 2.2 5.6 5 7.5 8.3 1.8 3.4 2.7 7.5 2.7 12.2v53.5h-20.9v-11h-.6c-1.3 2.5-3 4.7-5.1 6.5-2.1 1.9-4.7 3.3-7.7 4.4-3.1 1.1-6.5 1.7-10.4 1.7zm6.3-15.2c3.2 0 6.1-.6 8.6-1.9 2.5-1.3 4.4-3 5.8-5.2 1.4-2.2 2.1-4.7 2.1-7.5v-8.4c-.7.4-1.6.9-2.8 1.2-1.2.4-2.5.7-4 1-1.5.3-3 .6-4.4.8-1.5.2-2.8.4-4 .6-2.6.4-4.8 1-6.8 1.8-1.9.8-3.4 1.9-4.5 3.3s-1.6 3.1-1.6 5.2c0 3 1.1 5.3 3.3 6.8 2.1 1.5 4.9 2.3 8.3 2.3zM263.3 98c-8.2 0-15.2-1.7-21.1-5-5.9-3.3-10.4-8-13.6-14.2-3.2-6.1-4.8-13.4-4.8-21.7 0-8.2 1.6-15.3 4.8-21.5 3.2-6.2 7.6-11 13.4-14.4 5.8-3.4 12.6-5.2 20.3-5.2 5.2 0 10.1.8 14.7 2.5 4.5 1.7 8.5 4.2 11.9 7.5 3.4 3.3 6 7.5 7.9 12.6 1.9 5 2.8 10.9 2.8 17.7v6h-67V48.8H279c0-3.2-.7-6-2.1-8.4-1.4-2.4-3.3-4.4-5.7-5.8-2.4-1.4-5.2-2.1-8.5-2.1s-6.3.8-8.9 2.3c-2.6 1.5-4.6 3.6-6 6.2-1.4 2.6-2.2 5.4-2.2 8.6v13c0 3.9.7 7.3 2.2 10.2 1.5 2.9 3.5 5.1 6.2 6.6 2.7 1.6 5.9 2.3 9.6 2.3 2.4 0 4.7-.3 6.7-1s3.8-1.7 5.2-3.1c1.4-1.4 2.5-3.1 3.3-5.1l20.4 1.3c-1 4.9-3.1 9.2-6.3 12.8-3.2 3.6-7.3 6.5-12.3 8.5-5 1.9-10.8 2.9-17.3 2.9zM342.7 98c-8 0-15-1.7-20.8-5.1-5.8-3.4-10.3-8.2-13.5-14.4-3.2-6.2-4.8-13.3-4.8-21.4 0-8.2 1.6-15.4 4.8-21.5 3.2-6.2 7.7-10.9 13.5-14.4 5.8-3.4 12.8-5.1 20.8-5.1s15 1.7 20.8 5.1c5.8 3.4 10.3 8.2 13.5 14.4 3.2 6.2 4.8 13.3 4.8 21.5 0 8.1-1.6 15.3-4.8 21.4-3.2 6.2-7.7 10.9-13.5 14.4-5.9 3.4-12.8 5.1-20.8 5.1zm.1-17c3.7 0 6.7-1 9.1-3.1 2.4-2.1 4.3-4.9 5.6-8.6 1.3-3.6 1.9-7.7 1.9-12.4 0-4.6-.6-8.7-1.9-12.4-1.3-3.6-3.1-6.5-5.6-8.6-2.4-2.1-5.5-3.2-9.1-3.2-3.7 0-6.8 1.1-9.3 3.2-2.5 2.1-4.4 5-5.6 8.6-1.3 3.6-1.9 7.7-1.9 12.4 0 4.6.6 8.7 1.9 12.4 1.3 3.6 3.1 6.5 5.6 8.6 2.5 2 5.6 3.1 9.3 3.1zM410.9 50.6v45.9h-22V17.1h21v14h.9c1.8-4.6 4.7-8.3 8.8-11 4.1-2.7 9.1-4.1 15-4.1 5.5 0 10.3 1.2 14.4 3.6 4.1 2.4 7.3 5.8 9.6 10.3 2.3 4.5 3.4 9.8 3.4 15.9v50.5h-22V49.9c0-4.9-1.2-8.7-3.7-11.4-2.5-2.7-6-4.1-10.4-4.1-3 0-5.6.6-7.8 1.9-2.3 1.3-4 3.1-5.3 5.6-1.3 2.3-1.9 5.3-1.9 8.7z"/>
  <linearGradient id="SVGID_1_" gradientUnits="userSpaceOnUse" x1="13.307" y1="87.867" x2="61.618" y2="39.555">
    <stop offset="0" stop-color="#00a2ff"/>
    <stop offset=".814" stop-color="#203eff"/>
  </linearGradient>
  <path d="M42.3 58.9v9c0 5-4 9-9 9s-9-4-9-9 4-9 9-9h9m19.3-19.3H33.3C17.7 39.6 5 52.2 5 67.9s12.7 28.3 28.3 28.3 28.3-12.7 28.3-28.3V39.6z" fill="url(#SVGID_1_)"/>
  <linearGradient id="SVGID_2_" gradientUnits="userSpaceOnUse" x1="43.56" y1="66.618" x2="91.871" y2="18.307">
    <stop offset="0" stop-color="#262662"/>
    <stop offset="1" stop-color="#0000a0"/>
  </linearGradient>
  <path d="M61.6 48.6v-9c0-5 4-9 9-9s9 4 9 9-4 9-9 9h-9M42.3 67.9h28.3c15.6 0 28.3-12.7 28.3-28.3S86.3 11.3 70.6 11.3 42.3 23.9 42.3 39.6v28.3z" fill="url(#SVGID_2_)"/>
  <g>
    <defs>
      <path id="SVGID_3_" d="M42.3 58.9v9c0 5-4 9-9 9s-9-4-9-9 4-9 9-9h9m19.3-19.3H33.3C17.7 39.6 5 52.2 5 67.9s12.7 28.3 28.3 28.3 28.3-12.7 28.3-28.3V39.6z"/>
    </defs>
    <clipPath id="SVGID_4_">
      <use xlink:href="#SVGID_3_" overflow="visible"/>
    </clipPath>
    <linearGradient id="SVGID_5_" gradientUnits="userSpaceOnUse" x1="-1952.096" y1="468.514" x2="-1884.401" y2="468.514" gradientTransform="rotate(180 -942.2 277.974)">
      <stop offset="0" stop-color="#fff"/>
      <stop offset="1" stop-color="#fff" stop-opacity="0"/>
    </linearGradient>
    <path d="M67 69.2S50.6 99.3 7.5 84.4C-22.2 74.1 46 105.7 46 105.7l21.7-3.9-.7-32.6z" opacity=".15" clip-path="url(#SVGID_4_)" fill="url(#SVGID_5_)"/>
  </g>
  <g>
    <defs>
      <path id="SVGID_6_" d="M61.6 48.6v-9c0-5 4-9 9-9s9 4 9 9-4 9-9 9h-9M42.3 67.9h28.3c15.6 0 28.3-12.7 28.3-28.3S86.3 11.3 70.6 11.3 42.3 23.9 42.3 39.6v28.3z"/>
    </defs>
    <clipPath id="SVGID_7_">
      <use xlink:href="#SVGID_6_" overflow="visible"/>
    </clipPath>
    <linearGradient id="SVGID_8_" gradientUnits="userSpaceOnUse" x1="39.847" y1="18.219" x2="107.543" y2="18.219">
      <stop offset="0" stop-color="#fff"/>
      <stop offset="1" stop-color="#fff" stop-opacity="0"/>
    </linearGradient>
    <path d="M40.5 36.4S56.9 6.3 100 21.2C129.8 31.6 61.6 0 61.6 0L39.8 3.9l.7 32.5z" opacity=".15" clip-path="url(#SVGID_7_)" fill="url(#SVGID_8_)"/>
  </g>
  <path class="st0" d="M70.6 76.9c-5 0-9-4-9-9V39.6c0-15.6-12.7-28.3-28.3-28.3h-18v19.3h18c5 0 9 4 9 9v28.3c0 15.6 12.7 28.3 28.3 28.3h18V76.9h-18z"/>
</svg>
