<!-- Generator: Adobe Illustrator 24.1.0, SVG Export Plug-In  -->
<svg version="1.1" xmlns="http://www.w3.org/2000/svg" xmlns:xlink="http://www.w3.org/1999/xlink" x="0px" y="0px"
	 width="457.44px" height="92.63px" viewBox="0 0 457.44 92.63" style="enable-background:new 0 0 457.44 92.63;"
	 xml:space="preserve">
<style type="text/css">
	.st0{fill:#296BFC;}
	.st1{fill:#78BDFF;enable-background:new    ;}
	.st2{fill:#01186F;enable-background:new    ;}
</style>
<defs>
</defs>
<g>
	<path class="st0" d="M224.02,90.9c-7.63,0-13.1-5.18-14.4-13.25h-0.86c-2.3,9.79-10.66,14.98-22.18,14.98
		c-15.12,0-23.47-8.93-23.47-22.03c0-15.98,12.38-23.62,32.4-23.62h11.95v-4.75c0-7.34-3.6-11.95-12.53-11.95
		c-8.5,0-12.96,4.32-16.27,8.93l-12.67-11.23c6.05-8.93,14.69-14.4,30.53-14.4c21.31,0,32.26,9.79,32.26,27.65v33.12h7.06V90.9
		H224.02z M207.46,68.01v-8.93H197.1c-8.21,0-12.53,3.02-12.53,8.5v2.16c0,5.47,3.6,8.06,9.94,8.06
		C201.56,77.8,207.46,74.92,207.46,68.01z"/>
	<path class="st0" d="M238.13,53.03c0-23.9,12.67-39.46,35.42-39.46c25.05,0,35.13,18.14,35.13,38.59v6.34h-48.53v1.15
		c0,9.94,5.33,16.27,16.7,16.27c8.93,0,13.82-4.18,18.58-9.07L306.1,80.1c-6.77,7.78-17.86,12.53-31.68,12.53
		C251.24,92.63,238.13,77.22,238.13,53.03z M260.17,44.82v1.15h26.5v-1.3c0-9.22-4.18-15.41-12.67-15.41S260.17,35.46,260.17,44.82z
		"/>
	<path class="st0" d="M311.86,53.03c0-24.34,13.25-39.46,35.42-39.46s35.42,15.12,35.42,39.46c0,24.34-13.25,39.6-35.42,39.6
		S311.86,77.37,311.86,53.03z M360.53,60.81V45.4c0-9.5-4.9-14.98-13.25-14.98s-13.25,5.47-13.25,14.98v15.41
		c0,9.5,4.9,14.98,13.25,14.98S360.53,70.31,360.53,60.81z"/>
	<path class="st0" d="M390.63,90.9V15.3h21.31v12.82h0.86c2.74-7.92,9.07-14.54,21.02-14.54c15.41,0,23.62,10.94,23.62,29.95V90.9
		h-21.31V45.26c0-9.65-2.74-14.4-10.51-14.4c-6.91,0-13.68,3.6-13.68,11.09V90.9H390.63z"/>
</g>
<g>
	<path class="st1" d="M40.7,51.93v9.82c0,5.42-4.41,9.82-9.82,9.82s-9.82-4.41-9.82-9.82s4.41-9.82,9.82-9.82H40.7 M61.75,30.88
		H30.88C13.82,30.88,0,44.7,0,61.75s13.82,30.88,30.88,30.88s30.88-13.82,30.88-30.88V30.88L61.75,30.88z"/>
	<path class="st2" d="M61.75,40.7v-9.82c0-5.42,4.41-9.82,9.82-9.82c5.42,0,9.82,4.41,9.82,9.82S77,40.7,71.58,40.7H61.75
		 M40.7,61.75h30.88c17.05,0,30.88-13.82,30.88-30.88S88.63,0,71.58,0S40.7,13.82,40.7,30.88V61.75L40.7,61.75z"/>
	<path class="st0" d="M71.58,71.58c-5.42,0-9.82-4.41-9.82-9.82v-9.82V30.88C61.75,13.82,47.93,0,30.88,0H11.23v21.05h19.65
		c5.42,0,9.82,4.41,9.82,9.82v9.82v21.05c0,17.05,13.82,30.88,30.88,30.88h19.65V71.58H71.58z"/>
</g>
</svg>
