<svg width="363" height="50" viewBox="0 0 363 50" fill="none" xmlns="http://www.w3.org/2000/svg">
<path d="M31.3111 23.1662C30.8636 20.3665 28.6712 18.7301 25.9034 18.7301C22.5156 18.7301 20.0163 21.2678 20.0163 25.4545C20.0163 29.6413 22.5028 32.179 25.9034 32.179C28.7798 32.179 30.8828 30.3764 31.3111 27.7876L29.3168 27.7812C28.978 29.456 27.5717 30.3764 25.9162 30.3764C23.6726 30.3764 21.9787 28.657 21.9787 25.4545C21.9787 22.2777 23.6662 20.5327 25.9226 20.5327C27.5909 20.5327 28.9908 21.4723 29.3168 23.1662H31.3111ZM39.7406 27.9283C39.747 29.5966 38.5069 30.3892 37.4331 30.3892C36.2505 30.3892 35.4324 29.5327 35.4324 28.1967V22.1818H33.5211V28.4268C33.5211 30.8622 34.8571 32.1278 36.7427 32.1278C38.2193 32.1278 39.2228 31.348 39.6767 30.2997H39.7789V32H41.6582V22.1818H39.7406V27.9283ZM44.2262 32H46.1374V26.0043C46.1374 24.7195 47.1282 23.7926 48.4833 23.7926C48.8796 23.7926 49.3271 23.8629 49.4805 23.9077V22.0795C49.2887 22.054 48.9116 22.0348 48.6687 22.0348C47.5181 22.0348 46.5337 22.6868 46.1758 23.7415H46.0735V22.1818H44.2262V32ZM51.1344 32H53.0456V26.0043C53.0456 24.7195 54.0364 23.7926 55.3915 23.7926C55.7878 23.7926 56.2353 23.8629 56.3887 23.9077V22.0795C56.1969 22.054 55.8198 22.0348 55.5769 22.0348C54.4263 22.0348 53.4419 22.6868 53.084 23.7415H52.9817V22.1818H51.1344V32ZM61.9226 32.1982C64.0639 32.1982 65.5788 31.1435 66.0135 29.5455L64.2045 29.2195C63.8594 30.1463 63.0284 30.6193 61.9418 30.6193C60.3054 30.6193 59.206 29.5582 59.1548 27.6662H66.1349V26.9886C66.1349 23.4411 64.0128 22.054 61.7884 22.054C59.0526 22.054 57.25 24.1378 57.25 27.1548C57.25 30.2038 59.027 32.1982 61.9226 32.1982ZM59.1612 26.2344C59.2379 24.8409 60.2479 23.6328 61.8011 23.6328C63.2841 23.6328 64.2557 24.7322 64.2621 26.2344H59.1612ZM70.1667 26.1705C70.1667 24.6044 71.1255 23.7095 72.4551 23.7095C73.7527 23.7095 74.5389 24.5597 74.5389 25.9851V32H76.4501V25.755C76.4501 23.326 75.1142 22.054 73.1071 22.054C71.6305 22.054 70.6653 22.7379 70.2115 23.7798H70.09V22.1818H68.2555V32H70.1667V26.1705ZM83.5964 22.1818H81.5829V19.8295H79.6717V22.1818H78.2335V23.7159H79.6717V29.5135C79.6653 31.2969 81.0268 32.1598 82.5353 32.1278C83.1426 32.1214 83.5517 32.0064 83.7754 31.9233L83.4302 30.3445C83.3024 30.37 83.0659 30.4276 82.7591 30.4276C82.139 30.4276 81.5829 30.223 81.5829 29.1172V23.7159H83.5964V22.1818ZM87.8327 18.9091H85.9215V32H87.8327V18.9091ZM91.612 35.6818C93.1909 35.6818 94.188 34.8572 94.7569 33.3104L98.8159 22.201L96.7512 22.1818L94.2647 29.8011H94.1625L91.676 22.1818H89.6305L93.2228 32.1278L92.9863 32.7798C92.5005 34.0838 91.8166 34.1925 90.7683 33.9048L90.3081 35.4709C90.5382 35.5732 91.0368 35.6818 91.612 35.6818ZM112.738 24.5788C112.341 23.0511 111.146 22.054 109.024 22.054C106.806 22.054 105.233 23.2237 105.233 24.9624C105.233 26.3558 106.077 27.2827 107.918 27.6918L109.58 28.0561C110.526 28.267 110.967 28.6889 110.967 29.3026C110.967 30.0632 110.155 30.6577 108.903 30.6577C107.758 30.6577 107.023 30.1655 106.793 29.2003L104.946 29.4815C105.265 31.2202 106.71 32.1982 108.915 32.1982C111.287 32.1982 112.93 30.9389 112.93 29.1619C112.93 27.7749 112.047 26.9183 110.245 26.5028L108.685 26.1449C107.605 25.8892 107.138 25.5249 107.145 24.8601C107.138 24.1058 107.956 23.5689 109.043 23.5689C110.232 23.5689 110.782 24.2273 111.006 24.8857L112.738 24.5788ZM121.25 27.9283C121.257 29.5966 120.017 30.3892 118.943 30.3892C117.76 30.3892 116.942 29.5327 116.942 28.1967V22.1818H115.031V28.4268C115.031 30.8622 116.367 32.1278 118.252 32.1278C119.729 32.1278 120.733 31.348 121.186 30.2997H121.289V32H123.168V22.1818H121.25V27.9283ZM125.736 35.6818H127.647V30.4723H127.762C128.107 31.0987 128.811 32.1918 130.6 32.1918C132.978 32.1918 134.704 30.2869 134.704 27.1101C134.704 23.9268 132.953 22.054 130.581 22.054C128.759 22.054 128.101 23.1662 127.762 23.7734H127.602V22.1818H125.736V35.6818ZM127.609 27.0909C127.609 25.0391 128.504 23.6776 130.172 23.6776C131.904 23.6776 132.774 25.1413 132.774 27.0909C132.774 29.0597 131.879 30.5618 130.172 30.5618C128.529 30.5618 127.609 29.1555 127.609 27.0909ZM136.845 35.6818H138.757V30.4723H138.872C139.217 31.0987 139.92 32.1918 141.71 32.1918C144.088 32.1918 145.813 30.2869 145.813 27.1101C145.813 23.9268 144.062 22.054 141.691 22.054C139.869 22.054 139.21 23.1662 138.872 23.7734H138.712V22.1818H136.845V35.6818ZM138.718 27.0909C138.718 25.0391 139.613 23.6776 141.281 23.6776C143.014 23.6776 143.883 25.1413 143.883 27.0909C143.883 29.0597 142.988 30.5618 141.281 30.5618C139.639 30.5618 138.718 29.1555 138.718 27.0909ZM152.09 32.1982C154.858 32.1982 156.667 30.1719 156.667 27.1357C156.667 24.0803 154.858 22.054 152.09 22.054C149.323 22.054 147.514 24.0803 147.514 27.1357C147.514 30.1719 149.323 32.1982 152.09 32.1982ZM152.097 30.5938C150.288 30.5938 149.444 29.0149 149.444 27.1293C149.444 25.25 150.288 23.652 152.097 23.652C153.893 23.652 154.737 25.25 154.737 27.1293C154.737 29.0149 153.893 30.5938 152.097 30.5938ZM158.8 32H160.712V26.0043C160.712 24.7195 161.702 23.7926 163.058 23.7926C163.454 23.7926 163.901 23.8629 164.055 23.9077V22.0795C163.863 22.054 163.486 22.0348 163.243 22.0348C162.092 22.0348 161.108 22.6868 160.75 23.7415H160.648V22.1818H158.8V32ZM170.872 22.1818H168.858V19.8295H166.947V22.1818H165.509V23.7159H166.947V29.5135C166.941 31.2969 168.302 32.1598 169.811 32.1278C170.418 32.1214 170.827 32.0064 171.051 31.9233L170.706 30.3445C170.578 30.37 170.341 30.4276 170.034 30.4276C169.414 30.4276 168.858 30.223 168.858 29.1172V23.7159H170.872V22.1818ZM172.986 32H174.897V22.1818H172.986V32ZM173.951 20.6669C174.61 20.6669 175.159 20.1555 175.159 19.5291C175.159 18.9027 174.61 18.3849 173.951 18.3849C173.286 18.3849 172.743 18.9027 172.743 19.5291C172.743 20.1555 173.286 20.6669 173.951 20.6669ZM179.38 26.1705C179.38 24.6044 180.338 23.7095 181.668 23.7095C182.966 23.7095 183.752 24.5597 183.752 25.9851V32H185.663V25.755C185.663 23.326 184.327 22.054 182.32 22.054C180.843 22.054 179.878 22.7379 179.424 23.7798H179.303V22.1818H177.468V32H179.38V26.1705ZM192.343 35.8864C194.842 35.8864 196.772 34.7422 196.772 32.2173V22.1818H194.9V23.7734H194.759C194.42 23.1662 193.743 22.054 191.914 22.054C189.543 22.054 187.798 23.9268 187.798 27.0526C187.798 30.1847 189.581 31.853 191.902 31.853C193.704 31.853 194.401 30.8366 194.746 30.2102H194.868V32.1406C194.868 33.6811 193.813 34.3459 192.362 34.3459C190.77 34.3459 190.15 33.5469 189.811 32.9844L188.169 33.6619C188.686 34.8636 189.997 35.8864 192.343 35.8864ZM192.324 30.2678C190.617 30.2678 189.728 28.9574 189.728 27.027C189.728 25.1413 190.598 23.6776 192.324 23.6776C193.992 23.6776 194.887 25.0391 194.887 27.027C194.887 29.0533 193.973 30.2678 192.324 30.2678Z" fill="currentColor"/>
<path d="M230.719 25.25C230.719 20.4336 226.816 16.5312 222 16.5312C217.184 16.5312 213.281 20.4336 213.281 25.25C213.281 29.6094 216.445 33.2305 220.629 33.8633V27.7812H218.414V25.25H220.629V23.3516C220.629 21.1719 221.93 19.9414 223.898 19.9414C224.883 19.9414 225.867 20.1172 225.867 20.1172V22.2617H224.777C223.688 22.2617 223.336 22.9297 223.336 23.6328V25.25H225.762L225.375 27.7812H223.336V33.8633C227.52 33.2305 230.719 29.6094 230.719 25.25Z" fill="currentColor"/>
<path d="M255.625 17.375H242.09C241.492 17.375 241 17.9023 241 18.5352V32C241 32.6328 241.492 33.125 242.09 33.125H255.625C256.223 33.125 256.75 32.6328 256.75 32V18.5352C256.75 17.9023 256.223 17.375 255.625 17.375ZM245.746 30.875H243.426V23.3867H245.746V30.875ZM244.586 22.332C243.812 22.332 243.215 21.7344 243.215 20.9961C243.215 20.2578 243.812 19.625 244.586 19.625C245.324 19.625 245.922 20.2578 245.922 20.9961C245.922 21.7344 245.324 22.332 244.586 22.332ZM254.5 30.875H252.145V27.2188C252.145 26.375 252.145 25.25 250.949 25.25C249.719 25.25 249.543 26.1992 249.543 27.1836V30.875H247.223V23.3867H249.438V24.4062H249.473C249.789 23.8086 250.562 23.1758 251.688 23.1758C254.043 23.1758 254.5 24.7578 254.5 26.7617V30.875Z" fill="currentColor"/>
<path d="M275.719 16.5312C270.902 16.5312 267 20.4688 267 25.25C267 30.0664 270.902 33.9688 275.719 33.9688C280.5 33.9688 284.438 30.0664 284.438 25.25C284.438 20.4688 280.5 16.5312 275.719 16.5312ZM279.234 29.3633C279.094 29.3633 278.988 29.3281 278.883 29.2578C276.668 27.9219 274.137 27.8867 271.605 28.3789C271.465 28.4141 271.289 28.4844 271.184 28.4844C270.832 28.4844 270.621 28.2031 270.621 27.9219C270.621 27.5703 270.832 27.3945 271.113 27.3242C273.996 26.6914 276.914 26.7617 279.445 28.2383C279.656 28.3789 279.762 28.5195 279.762 28.8359C279.762 29.1523 279.516 29.3633 279.234 29.3633ZM280.184 27.0781C280.008 27.0781 279.867 26.9727 279.762 26.9375C277.547 25.6367 274.277 25.1094 271.359 25.8828C271.184 25.918 271.113 25.9883 270.938 25.9883C270.586 25.9883 270.27 25.6719 270.27 25.2852C270.27 24.9336 270.445 24.6875 270.797 24.582C271.781 24.3008 272.801 24.0898 274.242 24.0898C276.527 24.0898 278.742 24.6523 280.465 25.707C280.746 25.8477 280.887 26.0938 280.887 26.375C280.852 26.7617 280.57 27.0781 280.184 27.0781ZM281.273 24.4062C281.098 24.4062 280.992 24.3359 280.816 24.2656C278.32 22.7539 273.855 22.4023 270.938 23.2109C270.832 23.2461 270.656 23.3164 270.48 23.3164C270.023 23.3164 269.672 22.9297 269.672 22.4727C269.672 21.9805 269.988 21.7344 270.305 21.6289C271.535 21.2773 272.906 21.1016 274.418 21.1016C276.984 21.1016 279.691 21.6289 281.625 22.7891C281.906 22.9297 282.082 23.1406 282.082 23.5625C282.082 24.0547 281.695 24.4062 281.273 24.4062Z" fill="currentColor"/>
<path d="M302.875 21.207C300.625 21.207 298.832 23.0352 298.832 25.25C298.832 27.5 300.625 29.293 302.875 29.293C305.09 29.293 306.918 27.5 306.918 25.25C306.918 23.0352 305.09 21.207 302.875 21.207ZM302.875 27.8867C301.434 27.8867 300.238 26.7266 300.238 25.25C300.238 23.8086 301.398 22.6484 302.875 22.6484C304.316 22.6484 305.477 23.8086 305.477 25.25C305.477 26.7266 304.316 27.8867 302.875 27.8867ZM308.008 21.0664C308.008 20.5391 307.586 20.1172 307.059 20.1172C306.531 20.1172 306.109 20.5391 306.109 21.0664C306.109 21.5938 306.531 22.0156 307.059 22.0156C307.586 22.0156 308.008 21.5938 308.008 21.0664ZM310.68 22.0156C310.609 20.75 310.328 19.625 309.414 18.7109C308.5 17.7969 307.375 17.5156 306.109 17.4453C304.809 17.375 300.906 17.375 299.605 17.4453C298.34 17.5156 297.25 17.7969 296.301 18.7109C295.387 19.625 295.105 20.75 295.035 22.0156C294.965 23.3164 294.965 27.2188 295.035 28.5195C295.105 29.7852 295.387 30.875 296.301 31.8242C297.25 32.7383 298.34 33.0195 299.605 33.0898C300.906 33.1602 304.809 33.1602 306.109 33.0898C307.375 33.0195 308.5 32.7383 309.414 31.8242C310.328 30.875 310.609 29.7852 310.68 28.5195C310.75 27.2188 310.75 23.3164 310.68 22.0156ZM308.992 29.8906C308.746 30.5938 308.184 31.1211 307.516 31.4023C306.461 31.8242 304 31.7188 302.875 31.7188C301.715 31.7188 299.254 31.8242 298.234 31.4023C297.531 31.1211 297.004 30.5938 296.723 29.8906C296.301 28.8711 296.406 26.4102 296.406 25.25C296.406 24.125 296.301 21.6641 296.723 20.6094C297.004 19.9414 297.531 19.4141 298.234 19.1328C299.254 18.7109 301.715 18.8164 302.875 18.8164C304 18.8164 306.461 18.7109 307.516 19.1328C308.184 19.3789 308.711 19.9414 308.992 20.6094C309.414 21.6641 309.309 24.125 309.309 25.25C309.309 26.4102 309.414 28.8711 308.992 29.8906Z" fill="currentColor"/>
<path d="M334.219 23.4062H328.594V17.7812C328.594 17.6406 328.453 17.5 328.312 17.5H327.188C327.012 17.5 326.906 17.6406 326.906 17.7812V23.4062H321.281C321.105 23.4062 321 23.5469 321 23.6875V24.8125C321 24.9883 321.105 25.0938 321.281 25.0938H326.906V30.7188C326.906 30.8945 327.012 31 327.188 31H328.312C328.453 31 328.594 30.8945 328.594 30.7188V25.0938H334.219C334.359 25.0938 334.5 24.9883 334.5 24.8125V23.6875C334.5 23.5469 334.359 23.4062 334.219 23.4062Z" fill="currentColor"/>
</svg>
