<svg width="271" height="50" viewBox="0 0 271 50" fill="none" xmlns="http://www.w3.org/2000/svg">
<rect width="271" height="50" rx="8" fill="#0000FF"/>
<path d="M63.4382 32H65.4134V27.0462H68.098C68.1428 27.0462 68.1811 27.0462 68.2259 27.0462L70.8849 32H73.1349L70.233 26.701C71.8374 26.1065 72.6364 24.7706 72.6364 23.0128C72.6364 20.603 71.1406 18.9091 68.1044 18.9091H63.4382V32ZM65.4134 25.3459V20.603H67.8935C69.843 20.603 70.6484 21.5298 70.6484 23.0128C70.6484 24.4893 69.843 25.3459 67.919 25.3459H65.4134ZM78.9949 32.1982C81.1362 32.1982 82.6511 31.1435 83.0858 29.5455L81.2768 29.2195C80.9316 30.1463 80.1007 30.6193 79.014 30.6193C77.3777 30.6193 76.2782 29.5582 76.2271 27.6662H83.2072V26.9886C83.2072 23.4411 81.0851 22.054 78.8606 22.054C76.1248 22.054 74.3223 24.1378 74.3223 27.1548C74.3223 30.2038 76.0993 32.1982 78.9949 32.1982ZM76.2335 26.2344C76.3102 24.8409 77.3201 23.6328 78.8734 23.6328C80.3564 23.6328 81.3279 24.7322 81.3343 26.2344H76.2335ZM88.185 32.2173C89.8086 32.2173 90.7227 31.3928 91.087 30.6577H91.1637V32H93.0302V25.4801C93.0302 22.6229 90.7802 22.054 89.2205 22.054C87.4435 22.054 85.8072 22.7699 85.168 24.5597L86.9641 24.9688C87.2454 24.272 87.9613 23.6009 89.2461 23.6009C90.4798 23.6009 91.1126 24.2464 91.1126 25.3587V25.4034C91.1126 26.1001 90.3967 26.0874 88.6325 26.2919C86.7724 26.5092 84.8675 26.995 84.8675 29.2259C84.8675 31.1562 86.3185 32.2173 88.185 32.2173ZM88.6005 30.6832C87.5202 30.6832 86.7404 30.1974 86.7404 29.2514C86.7404 28.2287 87.6481 27.8643 88.7539 27.7173C89.3739 27.6342 90.8441 27.468 91.119 27.1932V28.4588C91.119 29.6222 90.1921 30.6832 88.6005 30.6832ZM99.2512 32.1918C101.041 32.1918 101.744 31.0987 102.089 30.4723H102.249V32H104.116V18.9091H102.204V23.7734H102.089C101.744 23.1662 101.092 22.054 99.264 22.054C96.8926 22.054 95.1475 23.9268 95.1475 27.1101C95.1475 30.2869 96.867 32.1918 99.2512 32.1918ZM99.6731 30.5618C97.9664 30.5618 97.0779 29.0597 97.0779 27.0909C97.0779 25.1413 97.9473 23.6776 99.6731 23.6776C101.341 23.6776 102.236 25.0391 102.236 27.0909C102.236 29.1555 101.322 30.5618 99.6731 30.5618ZM115.998 32C119.987 32 122.295 29.5263 122.295 25.4354C122.295 21.3636 119.987 18.9091 116.133 18.9091H111.76V32H115.998ZM113.736 30.2741V20.6349H116.011C118.875 20.6349 120.351 22.348 120.351 25.4354C120.351 28.5355 118.875 30.2741 115.89 30.2741H113.736ZM128.733 32.1982C131.501 32.1982 133.31 30.1719 133.31 27.1357C133.31 24.0803 131.501 22.054 128.733 22.054C125.965 22.054 124.156 24.0803 124.156 27.1357C124.156 30.1719 125.965 32.1982 128.733 32.1982ZM128.739 30.5938C126.93 30.5938 126.087 29.0149 126.087 27.1293C126.087 25.25 126.93 23.652 128.739 23.652C130.536 23.652 131.379 25.25 131.379 27.1293C131.379 29.0149 130.536 30.5938 128.739 30.5938ZM139.579 32.1982C141.899 32.1982 143.401 30.8047 143.612 28.8935H141.752C141.509 29.9545 140.684 30.581 139.591 30.581C137.974 30.581 136.932 29.2322 136.932 27.0909C136.932 24.9879 137.993 23.6648 139.591 23.6648C140.806 23.6648 141.547 24.4318 141.752 25.3523H143.612C143.407 23.3707 141.79 22.054 139.559 22.054C136.792 22.054 135.002 24.1378 135.002 27.1357C135.002 30.0952 136.728 32.1982 139.579 32.1982ZM151.875 27.9283C151.882 29.5966 150.642 30.3892 149.568 30.3892C148.385 30.3892 147.567 29.5327 147.567 28.1967V22.1818H145.656V28.4268C145.656 30.8622 146.992 32.1278 148.877 32.1278C150.354 32.1278 151.358 31.348 151.811 30.2997H151.914V32H153.793V22.1818H151.875V27.9283ZM156.361 32H158.272V25.9467C158.272 24.6236 159.199 23.7031 160.286 23.7031C161.347 23.7031 162.082 24.4062 162.082 25.4737V32H163.987V25.7422C163.987 24.5597 164.709 23.7031 165.955 23.7031C166.965 23.7031 167.796 24.2656 167.796 25.5952V32H169.708V25.4162C169.708 23.1726 168.455 22.054 166.678 22.054C165.265 22.054 164.204 22.7315 163.731 23.7798H163.629C163.2 22.706 162.299 22.054 160.989 22.054C159.691 22.054 158.726 22.6996 158.317 23.7798H158.195V22.1818H156.361V32ZM176.501 32.1982C178.642 32.1982 180.157 31.1435 180.592 29.5455L178.783 29.2195C178.438 30.1463 177.607 30.6193 176.52 30.6193C174.884 30.6193 173.784 29.5582 173.733 27.6662H180.713V26.9886C180.713 23.4411 178.591 22.054 176.366 22.054C173.631 22.054 171.828 24.1378 171.828 27.1548C171.828 30.2038 173.605 32.1982 176.501 32.1982ZM173.739 26.2344C173.816 24.8409 174.826 23.6328 176.379 23.6328C177.862 23.6328 178.834 24.7322 178.84 26.2344H173.739ZM184.745 26.1705C184.745 24.6044 185.704 23.7095 187.033 23.7095C188.331 23.7095 189.117 24.5597 189.117 25.9851V32H191.028V25.755C191.028 23.326 189.692 22.054 187.685 22.054C186.209 22.054 185.243 22.7379 184.79 23.7798H184.668V22.1818H182.834V32H184.745V26.1705ZM198.175 22.1818H196.161V19.8295H194.25V22.1818H192.812V23.7159H194.25V29.5135C194.243 31.2969 195.605 32.1598 197.113 32.1278C197.721 32.1214 198.13 32.0064 198.354 31.9233L198.008 30.3445C197.881 30.37 197.644 30.4276 197.337 30.4276C196.717 30.4276 196.161 30.223 196.161 29.1172V23.7159H198.175V22.1818ZM203.146 32.2173C204.77 32.2173 205.684 31.3928 206.048 30.6577H206.125V32H207.991V25.4801C207.991 22.6229 205.741 22.054 204.181 22.054C202.404 22.054 200.768 22.7699 200.129 24.5597L201.925 24.9688C202.206 24.272 202.922 23.6009 204.207 23.6009C205.441 23.6009 206.074 24.2464 206.074 25.3587V25.4034C206.074 26.1001 205.358 26.0874 203.593 26.2919C201.733 26.5092 199.828 26.995 199.828 29.2259C199.828 31.1562 201.279 32.2173 203.146 32.2173ZM203.561 30.6832C202.481 30.6832 201.701 30.1974 201.701 29.2514C201.701 28.2287 202.609 27.8643 203.715 27.7173C204.335 27.6342 205.805 27.468 206.08 27.1932V28.4588C206.08 29.6222 205.153 30.6832 203.561 30.6832ZM215.12 22.1818H213.106V19.8295H211.195V22.1818H209.757V23.7159H211.195V29.5135C211.189 31.2969 212.55 32.1598 214.059 32.1278C214.666 32.1214 215.075 32.0064 215.299 31.9233L214.954 30.3445C214.826 30.37 214.589 30.4276 214.282 30.4276C213.662 30.4276 213.106 30.223 213.106 29.1172V23.7159H215.12V22.1818ZM217.234 32H219.145V22.1818H217.234V32ZM218.199 20.6669C218.858 20.6669 219.407 20.1555 219.407 19.5291C219.407 18.9027 218.858 18.3849 218.199 18.3849C217.534 18.3849 216.991 18.9027 216.991 19.5291C216.991 20.1555 217.534 20.6669 218.199 20.6669ZM225.852 32.1982C228.62 32.1982 230.429 30.1719 230.429 27.1357C230.429 24.0803 228.62 22.054 225.852 22.054C223.084 22.054 221.275 24.0803 221.275 27.1357C221.275 30.1719 223.084 32.1982 225.852 32.1982ZM225.858 30.5938C224.05 30.5938 223.206 29.0149 223.206 27.1293C223.206 25.25 224.05 23.652 225.858 23.652C227.655 23.652 228.498 25.25 228.498 27.1293C228.498 29.0149 227.655 30.5938 225.858 30.5938ZM234.473 26.1705C234.473 24.6044 235.432 23.7095 236.762 23.7095C238.059 23.7095 238.846 24.5597 238.846 25.9851V32H240.757V25.755C240.757 23.326 239.421 22.054 237.414 22.054C235.937 22.054 234.972 22.7379 234.518 23.7798H234.397V22.1818H232.562V32H234.473V26.1705Z" fill="white"/>
<path d="M48.2148 31.8594L44.207 16.9531C44.1016 16.4961 43.6445 16.1445 43.1172 16.2852L42.5547 16.4609C42.3438 16.4961 42.168 16.6719 41.9922 16.9531C41.5 17.1992 40.1641 17.5508 39.6016 17.5859C39.3203 17.4453 39.0742 17.375 38.8633 17.4453L38.3359 17.5859C38.2305 17.6211 38.1602 17.6562 38.125 17.6914V17.375C38.125 16.7773 37.5977 16.25 37 16.25H34.75C34.1172 16.25 33.625 16.7773 33.625 17.375V19.625H38.125L41.6758 33.582C41.7812 34.0391 42.2383 34.3906 42.8008 34.25L43.3281 34.0742C43.5391 34.0391 43.75 33.8633 43.8906 33.582C44.3828 33.3359 45.7188 32.9844 46.2812 32.9492C46.5625 33.0898 46.8086 33.1602 47.0195 33.0898L47.582 32.9492C48.1094 32.8086 48.3203 32.2812 48.2148 31.8594ZM43.4688 31.6133L40.2344 19.5195L42.4141 18.9219L45.6484 31.0156L43.4688 31.6133ZM28 29.75H32.5V20.75H28V29.75ZM31.375 16.25H29.125C28.4922 16.25 28 16.7773 28 17.375V19.625H32.5V17.375C32.5 16.7773 31.9727 16.25 31.375 16.25ZM28 33.125C28 33.7578 28.4922 34.25 29.125 34.25H31.375C31.9727 34.25 32.5 33.7578 32.5 33.125V30.875H28V33.125ZM33.625 29.75H38.125V20.75H33.625V29.75ZM33.625 33.125C33.625 33.7578 34.1172 34.25 34.75 34.25H37C37.5977 34.25 38.125 33.7578 38.125 33.125V30.875H33.625V33.125Z" fill="white"/>
</svg>
