<svg width="229" height="50" viewBox="0 0 229 50" fill="none" xmlns="http://www.w3.org/2000/svg">
<rect width="229" height="50" rx="8" fill="#0000FF"/>
<path d="M67.6761 32C71.6648 32 73.9723 29.5263 73.9723 25.4354C73.9723 21.3636 71.6648 18.9091 67.8104 18.9091H63.4382V32H67.6761ZM65.4134 30.2741V20.6349H67.6889C70.5526 20.6349 72.0291 22.348 72.0291 25.4354C72.0291 28.5355 70.5526 30.2741 67.5675 30.2741H65.4134ZM80.4107 32.1982C83.1784 32.1982 84.9874 30.1719 84.9874 27.1357C84.9874 24.0803 83.1784 22.054 80.4107 22.054C77.6429 22.054 75.834 24.0803 75.834 27.1357C75.834 30.1719 77.6429 32.1982 80.4107 32.1982ZM80.4171 30.5938C78.6081 30.5938 77.7644 29.0149 77.7644 27.1293C77.7644 25.25 78.6081 23.652 80.4171 23.652C82.2132 23.652 83.057 25.25 83.057 27.1293C83.057 29.0149 82.2132 30.5938 80.4171 30.5938ZM88.9505 32H90.8936L92.888 24.9112H93.035L95.0293 32H96.9789L99.8617 22.1818H97.8865L95.9753 29.3601H95.8794L93.9618 22.1818H91.9867L90.0563 29.392H89.9604L88.0364 22.1818H86.0613L88.9505 32ZM103.587 26.1705C103.587 24.6044 104.545 23.7095 105.875 23.7095C107.173 23.7095 107.959 24.5597 107.959 25.9851V32H109.87V25.755C109.87 23.326 108.534 22.054 106.527 22.054C105.05 22.054 104.085 22.7379 103.631 23.7798H103.51V22.1818H101.675V32H103.587V26.1705ZM114.344 18.9091H112.433V32H114.344V18.9091ZM121.051 32.1982C123.819 32.1982 125.628 30.1719 125.628 27.1357C125.628 24.0803 123.819 22.054 121.051 22.054C118.284 22.054 116.475 24.0803 116.475 27.1357C116.475 30.1719 118.284 32.1982 121.051 32.1982ZM121.058 30.5938C119.249 30.5938 118.405 29.0149 118.405 27.1293C118.405 25.25 119.249 23.652 121.058 23.652C122.854 23.652 123.698 25.25 123.698 27.1293C123.698 29.0149 122.854 30.5938 121.058 30.5938ZM130.619 32.2173C132.242 32.2173 133.156 31.3928 133.521 30.6577H133.597V32H135.464V25.4801C135.464 22.6229 133.214 22.054 131.654 22.054C129.877 22.054 128.241 22.7699 127.602 24.5597L129.398 24.9688C129.679 24.272 130.395 23.6009 131.68 23.6009C132.913 23.6009 133.546 24.2464 133.546 25.3587V25.4034C133.546 26.1001 132.83 26.0874 131.066 26.2919C129.206 26.5092 127.301 26.995 127.301 29.2259C127.301 31.1562 128.752 32.2173 130.619 32.2173ZM131.034 30.6832C129.954 30.6832 129.174 30.1974 129.174 29.2514C129.174 28.2287 130.082 27.8643 131.188 27.7173C131.808 27.6342 133.278 27.468 133.553 27.1932V28.4588C133.553 29.6222 132.626 30.6832 131.034 30.6832ZM141.685 32.1918C143.475 32.1918 144.178 31.0987 144.523 30.4723H144.683V32H146.549V18.9091H144.638V23.7734H144.523C144.178 23.1662 143.526 22.054 141.698 22.054C139.326 22.054 137.581 23.9268 137.581 27.1101C137.581 30.2869 139.301 32.1918 141.685 32.1918ZM142.107 30.5618C140.4 30.5618 139.512 29.0597 139.512 27.0909C139.512 25.1413 140.381 23.6776 142.107 23.6776C143.775 23.6776 144.67 25.0391 144.67 27.0909C144.67 29.1555 143.756 30.5618 142.107 30.5618ZM155.3 32L156.502 28.5355H161.615L162.811 32H164.907L160.196 18.9091H157.914L153.203 32H155.3ZM157.077 26.8736L159.007 21.2869H159.11L161.04 26.8736H157.077ZM170.718 32.1982C172.859 32.1982 174.374 31.1435 174.808 29.5455L172.999 29.2195C172.654 30.1463 171.823 30.6193 170.737 30.6193C169.1 30.6193 168.001 29.5582 167.95 27.6662H174.93V26.9886C174.93 23.4411 172.808 22.054 170.583 22.054C167.847 22.054 166.045 24.1378 166.045 27.1548C166.045 30.2038 167.822 32.1982 170.718 32.1982ZM167.956 26.2344C168.033 24.8409 169.043 23.6328 170.596 23.6328C172.079 23.6328 173.051 24.7322 173.057 26.2344H167.956ZM181.186 32.1982C183.954 32.1982 185.763 30.1719 185.763 27.1357C185.763 24.0803 183.954 22.054 181.186 22.054C178.418 22.054 176.609 24.0803 176.609 27.1357C176.609 30.1719 178.418 32.1982 181.186 32.1982ZM181.192 30.5938C179.384 30.5938 178.54 29.0149 178.54 27.1293C178.54 25.25 179.384 23.652 181.192 23.652C182.989 23.652 183.832 25.25 183.832 27.1293C183.832 29.0149 182.989 30.5938 181.192 30.5938ZM189.807 26.1705C189.807 24.6044 190.766 23.7095 192.096 23.7095C193.393 23.7095 194.18 24.5597 194.18 25.9851V32H196.091V25.755C196.091 23.326 194.755 22.054 192.748 22.054C191.271 22.054 190.306 22.7379 189.852 23.7798H189.731V22.1818H187.896V32H189.807V26.1705Z" fill="white"/>
<path d="M35.5938 16.25C35.1016 16.25 34.75 16.6367 34.75 17.0938V23H31.6562C31.0234 23 30.707 23.7734 31.1641 24.2305L36.5078 29.5742C36.7539 29.8203 37.2109 29.8203 37.457 29.5742L42.8008 24.2305C43.2578 23.7734 42.9414 23 42.3086 23H39.25V17.0938C39.25 16.6367 38.8633 16.25 38.4062 16.25H35.5938ZM46 29.4688C46 29.0117 45.6133 28.625 45.1562 28.625H39.9883L38.2656 30.3477C37.5625 31.0859 36.4023 31.0859 35.6992 30.3477L33.9766 28.625H28.8438C28.3516 28.625 28 29.0117 28 29.4688V33.4062C28 33.8984 28.3516 34.25 28.8438 34.25H45.1562C45.6133 34.25 46 33.8984 46 33.4062V29.4688ZM41.6406 32.5625C41.6406 32.9492 41.3242 33.2656 40.9375 33.2656C40.5508 33.2656 40.2344 32.9492 40.2344 32.5625C40.2344 32.1758 40.5508 31.8594 40.9375 31.8594C41.3242 31.8594 41.6406 32.1758 41.6406 32.5625ZM43.8906 32.5625C43.8906 32.9492 43.5742 33.2656 43.1875 33.2656C42.8008 33.2656 42.4844 32.9492 42.4844 32.5625C42.4844 32.1758 42.8008 31.8594 43.1875 31.8594C43.5742 31.8594 43.8906 32.1758 43.8906 32.5625Z" fill="white"/>
</svg>
