<svg width="285" height="50" viewBox="0 0 285 50" fill="none" xmlns="http://www.w3.org/2000/svg">
<path d="M21.544 32L22.7457 28.5355H27.8594L29.0547 32H31.1513L26.4403 18.9091H24.1584L19.4474 32H21.544ZM23.321 26.8736L25.2514 21.2869H25.3537L27.2841 26.8736H23.321ZM40.057 22.1818H38.0051L35.525 29.7372H35.4228L32.9363 22.1818H30.8844L34.4512 32H36.4966L40.057 22.1818ZM44.4116 32.2173C46.0352 32.2173 46.9492 31.3928 47.3136 30.6577H47.3903V32H49.2567V25.4801C49.2567 22.6229 47.0067 22.054 45.4471 22.054C43.6701 22.054 42.0337 22.7699 41.3945 24.5597L43.1907 24.9688C43.4719 24.272 44.1879 23.6009 45.4727 23.6009C46.7063 23.6009 47.3391 24.2464 47.3391 25.3587V25.4034C47.3391 26.1001 46.6232 26.0874 44.859 26.2919C42.9989 26.5092 41.0941 26.995 41.0941 29.2259C41.0941 31.1562 42.5451 32.2173 44.4116 32.2173ZM44.8271 30.6832C43.7468 30.6832 42.967 30.1974 42.967 29.2514C42.967 28.2287 43.8746 27.8643 44.9805 27.7173C45.6005 27.6342 47.0707 27.468 47.3455 27.1932V28.4588C47.3455 29.6222 46.4187 30.6832 44.8271 30.6832ZM51.8024 32H53.7136V22.1818H51.8024V32ZM52.7676 20.6669C53.426 20.6669 53.9757 20.1555 53.9757 19.5291C53.9757 18.9027 53.426 18.3849 52.7676 18.3849C52.1028 18.3849 51.5595 18.9027 51.5595 19.5291C51.5595 20.1555 52.1028 20.6669 52.7676 20.6669ZM58.196 18.9091H56.2848V32H58.196V18.9091ZM63.6245 32.2173C65.248 32.2173 66.1621 31.3928 66.5265 30.6577H66.6032V32H68.4696V25.4801C68.4696 22.6229 66.2196 22.054 64.66 22.054C62.883 22.054 61.2466 22.7699 60.6074 24.5597L62.4036 24.9688C62.6848 24.272 63.4007 23.6009 64.6855 23.6009C65.9192 23.6009 66.552 24.2464 66.552 25.3587V25.4034C66.552 26.1001 65.8361 26.0874 64.0719 26.2919C62.2118 26.5092 60.307 26.995 60.307 29.2259C60.307 31.1562 61.758 32.2173 63.6245 32.2173ZM64.04 30.6832C62.9597 30.6832 62.1799 30.1974 62.1799 29.2514C62.1799 28.2287 63.0875 27.8643 64.1934 27.7173C64.8134 27.6342 66.2836 27.468 66.5584 27.1932V28.4588C66.5584 29.6222 65.6316 30.6832 64.04 30.6832ZM71.1687 32H73.0352V30.4723H73.195C73.5401 31.0987 74.2433 32.1918 76.033 32.1918C78.4109 32.1918 80.1367 30.2869 80.1367 27.1101C80.1367 23.9268 78.3853 22.054 76.0138 22.054C74.1921 22.054 73.5337 23.1662 73.195 23.7734H73.0799V18.9091H71.1687V32ZM73.0415 27.0909C73.0415 25.0391 73.9364 23.6776 75.6048 23.6776C77.337 23.6776 78.2063 25.1413 78.2063 27.0909C78.2063 29.0597 77.3114 30.5618 75.6048 30.5618C73.962 30.5618 73.0415 29.1555 73.0415 27.0909ZM84.1941 18.9091H82.2828V32H84.1941V18.9091ZM90.9968 32.1982C93.1381 32.1982 94.6531 31.1435 95.0877 29.5455L93.2788 29.2195C92.9336 30.1463 92.1026 30.6193 91.016 30.6193C89.3796 30.6193 88.2802 29.5582 88.229 27.6662H95.2092V26.9886C95.2092 23.4411 93.087 22.054 90.8626 22.054C88.1268 22.054 86.3242 24.1378 86.3242 27.1548C86.3242 30.2038 88.1012 32.1982 90.9968 32.1982ZM88.2354 26.2344C88.3121 24.8409 89.3221 23.6328 90.8754 23.6328C92.3583 23.6328 93.3299 24.7322 93.3363 26.2344H88.2354ZM106.766 22.1818H104.65V21.2997C104.65 20.4304 105.008 19.9574 105.941 19.9574C106.338 19.9574 106.619 20.0469 106.798 20.1044L107.245 18.5575C106.977 18.4553 106.421 18.2955 105.647 18.2955C104.094 18.2955 102.733 19.2031 102.733 21.044V22.1818H101.218V23.7159H102.733V32H104.65V23.7159H106.766V22.1818ZM112.487 32.1982C115.255 32.1982 117.064 30.1719 117.064 27.1357C117.064 24.0803 115.255 22.054 112.487 22.054C109.719 22.054 107.91 24.0803 107.91 27.1357C107.91 30.1719 109.719 32.1982 112.487 32.1982ZM112.493 30.5938C110.684 30.5938 109.841 29.0149 109.841 27.1293C109.841 25.25 110.684 23.652 112.493 23.652C114.289 23.652 115.133 25.25 115.133 27.1293C115.133 29.0149 114.289 30.5938 112.493 30.5938ZM119.197 32H121.108V26.0043C121.108 24.7195 122.099 23.7926 123.454 23.7926C123.85 23.7926 124.298 23.8629 124.451 23.9077V22.0795C124.259 22.054 123.882 22.0348 123.639 22.0348C122.489 22.0348 121.504 22.6868 121.146 23.7415H121.044V22.1818H119.197V32Z" fill="currentColor"/>
<path d="M172.18 26.707C172.18 25.4062 172.777 24.457 173.938 23.7188C173.27 22.7695 172.285 22.2773 170.984 22.1719C169.719 22.0664 168.348 22.875 167.855 22.875C167.328 22.875 166.133 22.207 165.184 22.207C163.215 22.2422 161.141 23.7539 161.141 26.8828C161.141 27.7969 161.281 28.7461 161.633 29.7305C162.09 31.0312 163.707 34.1953 165.395 34.125C166.273 34.125 166.906 33.4922 168.066 33.4922C169.191 33.4922 169.754 34.125 170.738 34.125C172.461 34.125 173.938 31.2422 174.359 29.9414C172.074 28.8516 172.18 26.7773 172.18 26.707ZM170.211 20.9414C171.16 19.8164 171.055 18.7617 171.055 18.375C170.211 18.4453 169.227 18.9727 168.664 19.6055C168.031 20.3086 167.68 21.1875 167.75 22.1367C168.664 22.207 169.508 21.75 170.211 20.9414Z" fill="currentColor"/>
<path d="M135 20.5547V25.8984H141.434V19.6758L135 20.5547ZM135 31.9805L141.434 32.8594V26.707H135V31.9805ZM142.137 32.9648L150.75 34.125V26.707H142.137V32.9648ZM142.137 19.5703V25.8984H150.75V18.375L142.137 19.5703Z" fill="currentColor"/>
<path d="M193.719 17.5312C188.902 17.5312 185 21.4336 185 26.25C185 31.0664 188.902 34.9688 193.719 34.9688C198.535 34.9688 202.438 31.0664 202.438 26.25C202.438 21.4336 198.535 17.5312 193.719 17.5312ZM195.547 20.8008C195.863 20.2734 196.566 20.0977 197.094 20.4141C197.621 20.7305 197.797 21.3984 197.48 21.9258C197.199 22.4883 196.496 22.6641 195.969 22.3477C195.441 22.0312 195.23 21.3633 195.547 20.8008ZM188.059 27.375C187.426 27.375 186.934 26.8828 186.934 26.25C186.934 25.6523 187.426 25.1602 188.059 25.1602C188.691 25.1602 189.184 25.6523 189.184 26.25C189.184 26.8828 188.691 27.375 188.059 27.375ZM189.043 27.4805C189.816 26.8828 189.816 25.6875 189.043 25.0547C189.359 23.8945 190.062 22.9102 191.047 22.2422L191.855 23.6484C190.062 24.9141 190.062 27.6211 191.855 28.8867L191.047 30.2578C190.062 29.625 189.359 28.6406 189.043 27.4805ZM197.094 32.1211C196.531 32.4375 195.863 32.2617 195.547 31.6992C195.23 31.1719 195.441 30.5039 195.969 30.1875C196.496 29.8711 197.199 30.0469 197.48 30.6094C197.797 31.1367 197.621 31.8047 197.094 32.1211ZM197.094 29.6953C196.145 29.3086 195.125 29.9062 194.984 30.9258C194.773 30.9609 193.262 31.418 191.574 30.5742L192.348 29.168C194.352 30.082 196.707 28.7461 196.883 26.5664H198.5C198.43 27.7969 197.902 28.8867 197.094 29.6953ZM196.883 25.9688C196.707 23.7891 194.387 22.418 192.348 23.3672L191.574 21.9609C193.262 21.1172 194.773 21.5742 194.949 21.6094C195.125 22.6289 196.145 23.2266 197.094 22.8398C197.902 23.6484 198.43 24.7383 198.5 25.9688H196.883Z" fill="currentColor"/>
<path d="M220.91 18.375C216.551 18.375 213 21.8906 213 26.25V32.2266C212.965 32.2266 212.965 32.2266 212.965 32.2617C212.965 33.2812 213.844 34.125 214.863 34.125H220.84C225.199 34.1602 228.75 30.6445 228.75 26.2852C228.75 21.9258 225.234 18.4102 220.91 18.375ZM226.852 23.9297L224.707 21.7148C224.777 21.5391 224.812 21.3984 224.812 21.2227V21.1523L226.781 23.1211C226.816 23.4023 226.852 23.6484 226.852 23.9297ZM224.637 20.5898C225.586 21.0117 226.324 21.8203 226.676 22.8398L224.777 20.9062C224.742 20.8008 224.672 20.6953 224.637 20.5898ZM217.148 25.9688C217.043 26.0742 216.938 26.2148 216.867 26.3555L216.551 26.0742C216.762 26.0039 216.938 25.9688 217.148 25.9688ZM216.41 26.1094L216.797 26.5312L216.762 26.8125C216.762 26.9531 216.797 27.0938 216.867 27.2344L215.918 26.2852C216.059 26.2148 216.234 26.1445 216.41 26.1094ZM215.742 26.3555L217.113 27.7266C216.938 27.7617 216.762 27.7969 216.586 27.8672L215.355 26.6016C215.496 26.5312 215.602 26.4258 215.742 26.3555ZM215.215 26.707L216.445 27.9727C216.34 28.043 216.199 28.1484 216.094 28.2539L214.863 27.0234C214.969 26.918 215.074 26.8125 215.215 26.707ZM214.758 27.1289L215.988 28.3594C215.883 28.5 215.777 28.6406 215.707 28.7812L214.441 27.5156C214.547 27.375 214.652 27.2695 214.758 27.1289ZM214.371 27.6562L215.637 28.9219C215.566 29.0977 215.531 29.2734 215.531 29.4492L214.125 28.0781C214.195 27.9375 214.266 27.7969 214.371 27.6562ZM214.055 28.2188L215.496 29.6953C215.531 30.0117 215.602 30.3281 215.742 30.6094L213.879 28.7109C213.949 28.5703 213.984 28.3945 214.055 28.2188ZM213.773 29.7305L215.953 31.9102C215.883 32.0508 215.812 32.2266 215.812 32.4023V32.4727L213.879 30.5039C213.809 30.2578 213.773 30.0117 213.773 29.7305ZM213.949 30.8203L215.883 32.7188C215.918 32.8594 215.953 32.9648 216.023 33.0352C215.039 32.6484 214.301 31.8047 213.949 30.8203ZM213.773 29.5195C213.773 29.3086 213.809 29.0977 213.844 28.9219L216.375 31.4531C216.27 31.5586 216.129 31.6289 216.059 31.7695L213.773 29.5195ZM222.668 27.6914H221.191V29.6602C221.191 32.0859 218.906 33.7383 216.762 33.2812C216.551 33.2812 216.059 32.9648 216.059 32.4023C216.059 31.9453 216.445 31.5586 216.938 31.5586C217.148 31.5586 217.148 31.5938 217.465 31.5938C218.555 31.5938 219.434 30.7148 219.434 29.6602L219.469 28.0078C219.469 27.832 219.293 27.6914 219.152 27.6914L217.957 27.6562C216.797 27.6562 216.832 25.9336 217.957 25.9336H219.469V23.9648C219.469 21.9258 221.121 20.2734 223.16 20.2734C223.195 20.2734 223.195 20.2734 223.195 20.2734C223.441 20.2734 223.652 20.3086 223.898 20.3789C224.285 20.4141 224.602 20.7656 224.602 21.2227C224.602 21.75 224.074 22.1719 223.512 22.0312C222.562 21.8555 221.191 22.5586 221.191 23.9648V25.6172C221.191 25.793 221.332 25.9336 221.508 25.9336H222.703C223.828 25.9688 223.828 27.6914 222.668 27.6914ZM223.512 27.6914C223.617 27.5508 223.723 27.4102 223.793 27.2695L224.074 27.5859C223.898 27.6211 223.688 27.6562 223.512 27.6914ZM224.25 27.5156L223.828 27.0938L223.863 26.8125C223.863 26.6719 223.828 26.5312 223.793 26.3906L224.742 27.3398C224.566 27.4102 224.426 27.4805 224.25 27.5156ZM224.883 27.2695L223.547 25.9336C223.723 25.8633 223.898 25.8281 224.039 25.7578L225.305 27.0234C225.164 27.0938 225.023 27.1992 224.883 27.2695ZM225.41 26.918L224.18 25.6875C224.32 25.582 224.426 25.4766 224.566 25.3711L225.797 26.6016C225.656 26.707 225.551 26.8125 225.41 26.918ZM225.902 26.4961L224.672 25.2656C224.777 25.125 224.848 25.0195 224.918 24.8438L226.184 26.1094C226.078 26.25 226.008 26.3906 225.902 26.4961ZM226.289 26.0039L224.988 24.7031C225.059 24.5273 225.094 24.3516 225.129 24.1758L226.5 25.582C226.43 25.7227 226.359 25.8633 226.289 26.0039ZM226.746 24.9141C226.711 25.0898 226.641 25.2305 226.57 25.4062L225.129 23.9297C225.129 23.6133 225.023 23.2969 224.883 23.0156L226.746 24.9141ZM226.781 24.7031L224.25 22.1719C224.391 22.1016 224.496 21.9961 224.602 21.8555L226.852 24.1055C226.852 24.3164 226.816 24.5273 226.781 24.7031Z" fill="currentColor"/>
<path d="M249.16 20.6953H247.578V24.4922L250.285 21.8203L249.16 20.6953ZM243.465 21.8203L246.137 24.4922V20.6953H244.555L243.465 21.8203ZM244.906 20.3438H246.488V24.8438L246.875 25.2305L247.262 24.8438V20.3438H248.809L246.875 18.375L244.906 20.3438ZM245.82 26.25L245.469 25.8633H240.934V24.3164L239 26.25L240.934 28.2188V26.6367H245.469L245.82 26.25ZM248.633 25.5117H252.43V23.9648L251.305 22.8398L248.633 25.5117ZM254.715 26.25L252.781 24.3164V25.8633H248.281L247.895 26.25L248.281 26.6367H252.781V28.2188L254.715 26.25ZM241.285 23.4727L242.41 22.3477L245.609 25.5117H246.137V24.9844L242.973 21.8203L244.062 20.6953H241.285V23.4727ZM252.43 20.6953H249.652L250.777 21.8203L247.578 24.9844V25.5117H248.141L251.305 22.3477L252.43 23.4727V20.6953ZM246.137 31.8047V28.0078L243.465 30.7148L244.555 31.8047H246.137ZM241.285 25.5117H245.117L242.41 22.8398L241.285 23.9648V25.5117ZM252.43 29.0625L251.305 30.1523L248.141 26.9883H247.578V27.5156L250.777 30.7148L249.652 31.8047H252.43V29.0625ZM252.43 26.9883H248.633L251.305 29.6602L252.43 28.5703V26.9883ZM250.285 30.7148L247.578 28.0078V31.8047H249.16L250.285 30.7148ZM242.41 29.6602L245.117 26.9883H241.285V28.5703L242.41 29.6602ZM248.809 32.1562H247.262V27.6562L246.875 27.3047L246.488 27.6562V32.1562H244.906L246.875 34.125L248.809 32.1562ZM242.973 30.7148L246.137 27.5156V26.9883H245.609L242.41 30.1523L241.285 29.0625V31.8047H244.062L242.973 30.7148Z" fill="currentColor"/>
</svg>
